{
  "accessors": [
    {
      "bufferView": 3,
      "componentType": 5126,
      "count": 8249,
      "max": [
        0.9880267977714539,
        0.998428463935852,
        0.9880269765853882
      ],
      "min": [
        -0.9880267977714539,
        -0.9984285235404968,
        -0.9880269765853882
      ],
      "type": "VEC3"
    },
    {
      "bufferView": 3,
      "byteOffset": 98988,
      "componentType": 5126,
      "count": 8249,
      "max": [
        1.0,
        1.0,
        1.0
      ],
      "min": [
        -1.0,
        -1.0,
        -1.0
      ],
      "type": "VEC3"
    },
    {
      "bufferView": 4,
      "componentType": 5126,
      "count": 8249,
      "max": [
        1.0,
        0.1966978758573532,
        1.0,
        1.0
      ],
      "min": [
        -1.0,
        -0.19669733941555023,
        -1.0,
        1.0
      ],
      "type": "VEC4"
    },
    {
      "bufferView": 2,
      "componentType": 5126,
      "count": 8249,
      "max": [
        1.0,
        1.0000001192092896
      ],
      "min": [
        0.0005318820476531982,
        0.0018931031227111816
      ],
      "type": "VEC2"
    },
    {
      "bufferView": 1,
      "componentType": 5125,
      "count": 47616,
      "type": "SCALAR"
    },
    {
      "bufferView": 3,
      "byteOffset": 197976,
      "componentType": 5126,
      "count": 8249,
      "max": [
        1.4794471263885498,
        1.4950222969055176,
        1.479447364807129
      ],
      "min": [
        -1.4794471263885498,
        -1.4950224161148071,
        -1.479447364807129
      ],
      "type": "VEC3"
    },
    {
      "bufferView": 3,
      "byteOffset": 296964,
      "componentType": 5126,
      "count": 8249,
      "max": [
        1.0,
        1.0,
        1.0
      ],
      "min": [
        -1.0,
        -1.0,
        -1.0
      ],
      "type": "VEC3"
    },
    {
      "bufferView": 4,
      "byteOffset": 131984,
      "componentType": 5126,
      "count": 8249,
      "max": [
        1.0,
        0.1966978758573532,
        1.0,
        1.0
      ],
      "min": [
        -1.0,
        -0.19669735431671143,
        -1.0,
        1.0
      ],
      "type": "VEC4"
    },
    {
      "bufferView": 2,
      "byteOffset": 65992,
      "componentType": 5126,
      "count": 8249,
      "max": [
        1.0,
        1.0000001192092896
      ],
      "min": [
        0.0005318820476531982,
        0.0018931031227111816
      ],
      "type": "VEC2"
    },
    {
      "bufferView": 1,
      "byteOffset": 190464,
      "componentType": 5125,
      "count": 47616,
      "type": "SCALAR"
    },
    {
      "bufferView": 3,
      "byteOffset": 395952,
      "componentType": 5126,
      "count": 8249,
      "max": [
        0.9880267977714539,
        0.9880269765853882,
        0.998428463935852
      ],
      "min": [
        -0.9880267977714539,
        -0.9880269765853882,
        -0.9984285235404968
      ],
      "type": "VEC3"
    },
    {
      "bufferView": 3,
      "byteOffset": 494940,
      "componentType": 5126,
      "count": 8249,
      "max": [
        1.0,
        1.0,
        1.0
      ],
      "min": [
        -1.0,
        -1.0,
        -1.0
      ],
      "type": "VEC3"
    },
    {
      "bufferView": 2,
      "byteOffset": 131984,
      "componentType": 5126,
      "count": 8249,
      "max": [
        1.0,
        1.0000001192092896
      ],
      "min": [
        0.0005318820476531982,
        0.0018931031227111816
      ],
      "type": "VEC2"
    },
    {
      "bufferView": 1,
      "byteOffset": 380928,
      "componentType": 5125,
      "count": 47616,
      "type": "SCALAR"
    },
    {
      "bufferView": 5,
      "componentType": 5126,
      "count": 5,
      "max": [
        100.0,
        0.0,
        0.0,
        0.0,
        0.0,
        100.0,
        0.0,
        0.0,
        0.0,
        0.0,
        100.0,
        0.0,
        0.0,
        0.5,
        0.0,
        1.0
      ],
      "min": [
        1.0,
        0.0,
        0.0,
        0.0,
        0.0,
        1.0,
        0.0,
        0.0,
        0.0,
        0.0,
        1.0,
        0.0,
        0.0,
        0.0,
        0.0,
        1.0
      ],
      "type": "MAT4"
    },
    {
      "bufferView": 0,
      "componentType": 5123,
      "count": 8249,
      "type": "VEC4"
    },
    {
      "bufferView": 4,
      "byteOffset": 263968,
      "componentType": 5126,
      "count": 8249,
      "max": [
        1.0,
        0.0,
        0.0,
        0.0
      ],
      "min": [
        1.0,
        0.0,
        0.0,
        0.0
      ],
      "type": "VEC4"
    },
    {
      "bufferView": 0,
      "byteOffset": 65992,
      "componentType": 5123,
      "count": 8249,
      "type": "VEC4"
    },
    {
      "bufferView": 4,
      "byteOffset": 395952,
      "componentType": 5126,
      "count": 8249,
      "max": [
        1.0,
        0.0,
        0.0,
        0.0
      ],
      "min": [
        1.0,
        0.0,
        0.0,
        0.0
      ],
      "type": "VEC4"
    },
    {
      "bufferView": 6,
      "componentType": 5126,
      "count": 960,
      "max": [
        20.0
      ],
      "min": [
        0.0
      ],
      "type": "SCALAR"
    },
    {
      "bufferView": 7,
      "componentType": 5126,
      "count": 960,
      "max": [
        0.7071068286895752,
        0.7071068286895752,
        0.7071067094802856,
        0.7071067094802856
      ],
      "min": [
        -0.5000000596046448,
        -0.4999997615814209,
        -0.4999997019767761,
        -0.4999999701976776
      ],
      "type": "VEC4"
    },
    {
      "bufferView": 6,
      "byteOffset": 3840,
      "componentType": 5126,
      "count": 961,
      "max": [
        20.0
      ],
      "min": [
        0.0
      ],
      "type": "SCALAR"
    },
    {
      "bufferView": 7,
      "byteOffset": 15360,
      "componentType": 5126,
      "count": 961,
      "max": [
        0.7071068286895752,
        0.7071068286895752,
        0.7071067094802856,
        0.7071067094802856
      ],
      "min": [
        -0.5000000596046448,
        -0.49737516045570374,
        -0.49737510085105896,
        -0.4999999701976776
      ],
      "type": "VEC4"
    }
  ],
  "animations": [
    {
      "channels": [
        {
          "sampler": 0,
          "target": {
            "node": 7,
            "path": "rotation"
          }
        },
        {
          "sampler": 1,
          "target": {
            "node": 9,
            "path": "rotation"
          }
        }
      ],
      "name": "Planet Rotation",
      "samplers": [
        {
          "input": 19,
          "interpolation": "LINEAR",
          "output": 20
        },
        {
          "input": 21,
          "interpolation": "LINEAR",
          "output": 22
        }
      ]
    }
  ],
  "asset": {
    "extras": {
      "author": "jimmyn64 (https://sketchfab.com/jimmyn64)",
      "license": "CC-BY-4.0 (http://creativecommons.org/licenses/by/4.0/)",
      "source": "https://sketchfab.com/3d-models/green-planet-965dcf47e69e4c139741598162b147cf",
      "title": "Green Planet"
    },
    "generator": "Sketchfab-12.66.0",
    "version": "2.0"
  },
  "bufferViews": [
    {
      "buffer": 0,
      "byteLength": 131984,
      "byteStride": 8,
      "name": "shortBufferViews",
      "target": 34962
    },
    {
      "buffer": 0,
      "byteLength": 571392,
      "byteOffset": 131984,
      "name": "floatBufferViews",
      "target": 34963
    },
    {
      "buffer": 0,
      "byteLength": 197976,
      "byteOffset": 703376,
      "byteStride": 8,
      "name": "floatBufferViews",
      "target": 34962
    },
    {
      "buffer": 0,
      "byteLength": 593928,
      "byteOffset": 901352,
      "byteStride": 12,
      "name": "floatBufferViews",
      "target": 34962
    },
    {
      "buffer": 0,
      "byteLength": 527936,
      "byteOffset": 1495280,
      "byteStride": 16,
      "name": "floatBufferViews",
      "target": 34962
    },
    {
      "buffer": 0,
      "byteLength": 320,
      "byteOffset": 2023216,
      "name": "floatBufferViews"
    },
    {
      "buffer": 0,
      "byteLength": 7684,
      "byteOffset": 2023536,
      "name": "floatBufferViews"
    },
    {
      "buffer": 0,
      "byteLength": 30736,
      "byteOffset": 2031220,
      "byteStride": 16,
      "name": "floatBufferViews"
    }
  ],
  "buffers": [
    {
      "byteLength": 2061956,
      "uri": "scene.bin"
    }
  ],
  "extensionsUsed": [
    "KHR_materials_clearcoat"
  ],
  "images": [
    {
      "uri": "textures/Ground_baseColor.png"
    },
    {
      "uri": "textures/Ground_metallicRoughness.png"
    },
    {
      "uri": "textures/Ground_emissive.png"
    },
    {
      "uri": "textures/Ground_normal.png"
    },
    {
      "uri": "textures/Ground_clearcoat.png"
    },
    {
      "uri": "textures/Clouds_baseColor.png"
    },
    {
      "uri": "textures/Clouds_normal.png"
    }
  ],
  "materials": [
    {
      "doubleSided": true,
      "emissiveFactor": [
        0.2610518293,
        0.2610518293,
        0.2610518293
      ],
      "emissiveTexture": {
        "index": 2
      },
      "extensions": {
        "KHR_materials_clearcoat": {
          "clearcoatFactor": 0.2029344512,
          "clearcoatNormalTexture": {
            "index": 3
          },
          "clearcoatRoughnessFactor": 0.8126905488,
          "clearcoatRoughnessTexture": {
            "index": 1
          },
          "clearcoatTexture": {
            "index": 4
          }
        }
      },
      "name": "Ground",
      "normalTexture": {
        "index": 3
      },
      "pbrMetallicRoughness": {
        "baseColorTexture": {
          "index": 0
        },
        "metallicFactor": 0.0,
        "metallicRoughnessTexture": {
          "index": 1
        }
      }
    },
    {
      "alphaMode": "BLEND",
      "doubleSided": true,
      "name": "Clouds",
      "normalTexture": {
        "index": 6
      },
      "pbrMetallicRoughness": {
        "baseColorFactor": [
          0.6971980321797562,
          0.783914465286133,
          0.5181706388087856,
          1.0
        ],
        "baseColorTexture": {
          "index": 5
        },
        "metallicFactor": 0.0
      }
    },
    {
      "name": "Atmosphere",
      "pbrMetallicRoughness": {
        "baseColorFactor": [
          0.03303686278759599,
          0.0758955803843573,
          0.02564638507484584,
          1.0
        ],
        "metallicFactor": 0.0
      }
    }
  ],
  "meshes": [
    {
      "name": "QonoS_Ground_Ground_0",
      "primitives": [
        {
          "attributes": {
            "JOINTS_0": 15,
            "NORMAL": 1,
            "POSITION": 0,
            "TANGENT": 2,
            "TEXCOORD_0": 3,
            "WEIGHTS_0": 16
          },
          "indices": 4,
          "material": 0,
          "mode": 4
        }
      ]
    },
    {
      "name": "QonoS_Clouds_Clouds_0",
      "primitives": [
        {
          "attributes": {
            "JOINTS_0": 17,
            "NORMAL": 6,
            "POSITION": 5,
            "TANGENT": 7,
            "TEXCOORD_0": 8,
            "WEIGHTS_0": 18
          },
          "indices": 9,
          "material": 1,
          "mode": 4
        }
      ]
    },
    {
      "name": "QonoS_Atmosphere_Atmosphere_0",
      "primitives": [
        {
          "attributes": {
            "NORMAL": 11,
            "POSITION": 10,
            "TEXCOORD_0": 12
          },
          "indices": 13,
          "material": 2,
          "mode": 4
        }
      ]
    }
  ],
  "nodes": [
    {
      "children": [
        1
      ],
      "matrix": [
        1.0998002290725708,
        0.0,
        0.0,
        0.0,
        0.0,
        2.442047073608779e-16,
        -1.0998002290725708,
        0.0,
        0.0,
        1.0998002290725708,
        2.442047073608779e-16,
        0.0,
        0.0,
        0.0,
        0.0,
        1.0
      ],
      "name": "Sketchfab_model"
    },
    {
      "children": [
        2
      ],
      "matrix": [
        1.0,
        0.0,
        0.0,
        0.0,
        0.0,
        0.0,
        1.0,
        0.0,
        0.0,
        -1.0,
        0.0,
        0.0,
        0.0,
        0.0,
        0.0,
        1.0
      ],
      "name": "25edeba3600546819ff876beba6912d6.fbx"
    },
    {
      "children": [
        3
      ],
      "name": "Object_2"
    },
    {
      "children": [
        4,
        15,
        16,
        17,
        19,
        22
      ],
      "name": "RootNode"
    },
    {
      "children": [
        5
      ],
      "name": "PlanetAxis",
      "rotation": [
        -0.7071068286895752,
        0.0,
        0.0,
        0.7071067094802856
      ],
      "scale": [
        100.0,
        100.0,
        100.0
      ]
    },
    {
      "children": [
        6,
        12,
        14,
        11,
        13
      ],
      "name": "Object_5"
    },
    {
      "children": [
        7,
        9
      ],
      "name": "_rootJoint"
    },
    {
      "children": [
        8
      ],
      "name": "GroundAxis_00",
      "rotation": [
        0.7071068286895752,
        0.0,
        0.0,
        0.7071067094802856
      ],
      "translation": [
        0.0,
        -1.3234889800848443e-23,
        -0.5
      ]
    },
    {
      "name": "GroundAxis_end_03",
      "translation": [
        0.0,
        1.0,
        0.0
      ]
    },
    {
      "children": [
        10
      ],
      "name": "CloudAxis_01",
      "rotation": [
        0.7071068286895752,
        0.0,
        0.0,
        0.7071067094802856
      ],
      "translation": [
        0.0,
        -1.3234889800848443e-23,
        -0.5
      ]
    },
    {
      "name": "CloudAxis_end_02",
      "translation": [
        0.0,
        1.0,
        0.0
      ]
    },
    {
      "matrix": [
        100.0,
        0.0,
        0.0,
        0.0,
        0.0,
        6.123233995736766e-15,
        -100.0,
        0.0,
        0.0,
        100.0,
        6.123233995736766e-15,
        0.0,
        0.0,
        0.0,
        0.0,
        1.0
      ],
      "name": "Object_11"
    },
    {
      "mesh": 0,
      "name": "Object_12",
      "skin": 0
    },
    {
      "matrix": [
        100.49737691879272,
        0.0,
        0.0,
        0.0,
        0.0,
        6.15368954831523e-15,
        -100.49737691879272,
        0.0,
        0.0,
        100.49737691879272,
        6.15368954831523e-15,
        0.0,
        0.0,
        0.0,
        0.0,
        1.0
      ],
      "name": "Object_13"
    },
    {
      "mesh": 1,
      "name": "Object_14",
      "skin": 0
    },
    {
      "name": "QonoS_Ground",
      "rotation": [
        -0.7071068286895752,
        0.0,
        0.0,
        0.7071067094802856
      ],
      "scale": [
        100.0,
        100.0,
        100.0
      ]
    },
    {
      "name": "QonoS_Clouds",
      "rotation": [
        -0.7071068286895752,
        0.0,
        0.0,
        0.7071067094802856
      ],
      "scale": [
        100.49737548828125,
        100.49737548828125,
        100.49737548828125
      ]
    },
    {
      "children": [
        18
      ],
      "name": "QonoS_Atmosphere",
      "rotation": [
        -0.7071068286895752,
        0.0,
        0.0,
        0.7071067094802856
      ],
      "scale": [
        105.89107513427734,
        105.89107513427734,
        105.89107513427734
      ]
    },
    {
      "mesh": 2,
      "name": "QonoS_Atmosphere_Atmosphere_0"
    },
    {
      "children": [
        20
      ],
      "name": "Lamp",
      "rotation": [
        0.16907571256160736,
        0.7558803558349609,
        -0.2721713185310364,
        0.5709474682807922
      ],
      "scale": [
        100.00000762939453,
        100.0,
        100.0
      ],
      "translation": [
        407.6245422363281,
        590.38623046875,
        -100.54539489746094
      ]
    },
    {
      "children": [
        21
      ],
      "matrix": [
        1.0,
        0.0,
        0.0,
        0.0,
        0.0,
        2.220446049250313e-16,
        1.0,
        0.0,
        0.0,
        -1.0,
        2.220446049250313e-16,
        0.0,
        0.0,
        0.0,
        0.0,
        1.0
      ],
      "name": "Object_20"
    },
    {
      "name": "Object_21"
    },
    {
      "children": [
        23
      ],
      "name": "Camera",
      "rotation": [
        -0.21255728602409363,
        0.9047970175743103,
        -0.08438936620950699,
        0.3592217266559601
      ],
      "scale": [
        100.0,
        100.00000762939453,
        99.99999237060547
      ],
      "translation": [
        748.1131591796875,
        534.3665161132813,
        650.7639770507813
      ]
    },
    {
      "name": "Object_23"
    }
  ],
  "samplers": [
    {
      "magFilter": 9729,
      "minFilter": 9987,
      "wrapS": 10497,
      "wrapT": 10497
    }
  ],
  "scene": 0,
  "scenes": [
    {
      "name": "Sketchfab_Scene",
      "nodes": [
        0
      ]
    }
  ],
  "skins": [
    {
      "inverseBindMatrices": 14,
      "joints": [
        6,
        7,
        8,
        9,
        10
      ],
      "skeleton": 6
    }
  ],
  "textures": [
    {
      "sampler": 0,
      "source": 0
    },
    {
      "sampler": 0,
      "source": 1
    },
    {
      "sampler": 0,
      "source": 2
    },
    {
      "sampler": 0,
      "source": 3
    },
    {
      "sampler": 0,
      "source": 4
    },
    {
      "sampler": 0,
      "source": 5
    },
    {
      "sampler": 0,
      "source": 6
    }
  ]
}
